<?xml version="1.0" encoding="UTF-8"?>
<svg width="866px" height="543px" viewBox="0 0 866 543" version="1.1" xmlns="http://www.w3.org/2000/svg" xmlns:xlink="http://www.w3.org/1999/xlink">
    <!-- Generator: Sketch 61.2 (89653) - https://sketch.com -->
    <title>big logobig-logo</title>
    <desc>Created with Sketch.</desc>
    <g id="Page-1" stroke="none" stroke-width="1" fill="none" fill-rule="evenodd">
        <rect id="background" fill="#222222" x="-954" y="-2403" width="8181" height="4952"></rect>
        <text id="ATHLETIC-CLOCK" font-family="Poppins-Black, Poppins Black" font-size="100" font-weight="700" fill="#FFFFFF">
            <tspan x="2.4" y="460">SIMPLE INTERVAL</tspan>
        </text>
        <text id="free-online-workout" font-family="Poppins-Black, Poppins Black" font-size="60" font-weight="700" fill="#FFFFFF">
            <tspan x="35.94" y="543">free online workout timer</tspan>
        </text>
        <g id="Group" transform="translate(207.000000, 0.000000)">
            <g id="kettlebell" transform="translate(0.000000, 84.000000)" fill="#FFFFFF">
                <path d="M114.252704,0 C156.757732,0 190.572973,9.81881611 190.572973,45.1785105 C190.572973,80.5382048 138.348457,128.04878 114.252704,128.04878 C90.1569505,128.04878 36.6486486,80.5382048 36.6486486,45.1785105 C36.6486486,9.81881611 71.7476754,0 114.252704,0 Z M115.434005,24.3902439 C85.4106114,24.3902439 65.9675676,24.3902439 65.9675676,46.870264 C65.9675676,69.3502841 101.892436,103.658537 115.434005,103.658537 C128.975573,103.658537 162.475676,65.5338296 162.475676,46.870264 C162.475676,28.2066984 145.457398,24.3902439 115.434005,24.3902439 Z" id="Oval" fill-rule="nonzero"></path>
                <path d="M57.5988315,96.3414634 C57.5988315,96.3414634 169.362107,96.3414634 169.362107,96.3414634 C190.576317,96.3414634 224.657406,134.351305 225.720358,174.797887 C226.783311,215.24447 226.783311,250 187.694171,250 C187.694171,250 38.5570563,250 34.369994,250 C1.23731257,250 -0.850036997,212.089399 0.193637785,174.797887 C1.23731257,137.506376 41.038283,96.3414634 57.5988315,96.3414634 Z" id="Rectangle" fill-rule="evenodd"></path>
            </g>
            <g id="dumb-bell" transform="translate(310.878723, 165.778182) rotate(57.000000) translate(-310.878723, -165.778182) translate(158.829787, 95.523636)">
                <path d="M6,6.10909091 L66.0553191,6.10909091 C69.3690276,6.10909091 72.0553191,8.79538241 72.0553191,12.1090909 L72.0553191,138.174545 C72.0553191,141.488254 69.3690276,144.174545 66.0553191,144.174545 L6,144.174545 C2.6862915,144.174545 1.29399067e-15,141.488254 0,138.174545 C0,117.301292 0,96.4280379 0,75.5547841 C0,54.4062197 0,33.2576553 0,12.1090909 C-4.05812251e-16,8.79538241 2.6862915,6.10909091 6,6.10909091 Z" id="Rectangle" fill="#FFFEFE"></path>
                <rect id="Rectangle-Copy" fill="#FFFFFF" x="232.042553" y="6.10909091" width="72.0553191" height="138.065455" rx="6"></rect>
                <path d="M59.8425532,59.8690909 C87.9429564,56.6109091 117.800065,54.9818182 149.413878,54.9818182 C181.027692,54.9818182 212.641506,56.6109091 244.255319,59.8690909 L244.255319,89.1927273 C211.37492,92.4509091 179.92448,94.08 149.903998,94.08 C119.883517,94.08 89.8630349,92.4509091 59.8425532,89.1927273 L59.8425532,59.8690909 Z" id="Rectangle" fill="#FFFFFF"></path>
            </g>
        </g>
    </g>
</svg>
