<?xml version="1.0" encoding="UTF-8"?>
<svg width="125px" height="125px" viewBox="0 0 125 125" version="1.1" xmlns="http://www.w3.org/2000/svg" xmlns:xlink="http://www.w3.org/1999/xlink">
    <!-- Generator: Sketch 61.2 (89653) - https://sketch.com -->
    <title>single-color-svg</title>
    <desc>Created with Sketch.</desc>
    <g id="single-color-svg" stroke="none" stroke-width="1" fill="none" fill-rule="evenodd">
        <rect fill="#484848" opacity="0" x="0" y="0" width="125" height="125"></rect>
        <g id="hand" transform="translate(-4.000000, -29.000000)" fill="#FFFFFF">
            <path d="M41.9428817,153.456115 C43.4949404,143.790606 44.2709698,137.680295 44.2709698,135.12518 C44.2709698,132.570065 44.2709698,129.95136 44.2709698,127.269065 C43.6931796,127.283978 41.7521658,125.462197 38.4479284,121.803723 C33.4915723,116.316012 36.0679295,117.873005 33.1338389,113.360072 C30.1997483,108.847138 26.2323831,106.553775 23.7571625,101.082014 C21.2819419,95.6102543 23.0062282,92.4130401 20.596844,85.7835661 C18.1874599,79.1540922 15.9557743,77.8857217 13.47714,70.3408968 C11.9497625,65.6916448 9.16796118,63.6331719 9.16796118,60.2326673 C9.16796118,55.6075731 14.5878152,55.721594 21.5541518,58.1761055 C23.7571625,58.9523119 30.135514,66.9475393 31.8663334,70.8848627 C33.2467851,74.0251587 34.3637037,76.5289956 36.5507297,80.4256489 C38.008747,83.0234177 40.0950393,84.4023551 42.8096064,84.5624611 C46.5537627,82.8311321 50.0280319,80.5008141 53.2324141,77.571507 C58.0389874,73.1775464 58.0676653,65.1122634 58.8195452,60.2326673 C59.7541127,54.1674534 59.7541127,49.793434 60.6003736,46.6389455 C61.1403647,44.6260959 62.4090662,44.0106434 63.4117573,41.7069091 C64.8780602,38.3380028 66.7801407,36.5263649 69.3484165,35.7072286 C71.9166923,34.8880924 78.8350524,36.4969291 80.8037833,38.5581465 C83.2974518,41.1689617 82.3418072,43.487873 80.8037833,46.0396084 C80.0612048,47.2716204 78.1042725,47.9444153 74.9329864,48.0579931 C74.3711452,51.8317405 74.0902246,54.8042898 74.0902246,56.9756408 C74.0902246,60.2326673 71.0166483,70.3408968 72.9434587,72.8212787 C79.031814,67.9285946 82.2486689,57.0629167 85.1698203,52.6028019 C86.9729681,49.8496936 87.6154509,46.6515867 88.7203083,45.4363361 C92.1109547,41.7069091 95.2010955,40.5216951 99.2625987,42.8936624 C102.318608,44.6784089 104.16528,46.0396084 102.570347,52.6028019 C102.314299,53.6564503 100.725464,55.4288898 97.8038434,57.9201202 C97.0636911,59.3360162 96.3777222,60.7717157 95.7459366,62.2272187 C94.0647683,66.1002821 91.0275986,69.6886131 93.5760972,71.4923481 C97.1540239,74.0246751 104.49995,64.0235172 109.06359,64.0235172 C112.957877,64.0235172 115.881033,66.9857534 117.423687,70.8848627 C118.966342,74.7839721 115.96359,79.9202753 112.940891,81.5193399 C111.63167,82.2119422 110.686557,84.5624611 107.653921,84.5624611 C106.692704,84.5624611 104.99818,84.0849853 102.570347,83.1300337 L101.875549,84.147027 C103.567675,84.6862034 104.80812,85.0232799 105.596886,85.1582565 C107.757475,85.5279847 113.687399,83.1300337 115.149057,83.1300337 C116.610716,83.1300337 117.990058,84.5624611 120.712156,86.3404026 C123.408618,88.1015989 125.549143,93.0103151 118.951721,97.497989 C116.416612,99.2224112 113.775153,98.644589 111.027345,95.7645225 L110.26677,94.7728223 C109.931546,97.8982015 109.530486,100.001266 109.06359,101.082014 C106.251932,107.590306 107.076715,112.081017 101.875549,118.459439 C97.3506544,124.008519 92.6374106,129.562826 89.5643008,135.12518 C87.5155608,138.833416 86.291295,145.14379 85.8915031,154.056302 L41.9428817,153.456115 Z" id="Path-2"></path>
            <g id="Group" stroke-width="1" transform="translate(70.572937, 80.263309) rotate(-40.000000) translate(-70.572937, -80.263309) translate(28.403071, 38.756835)">
                <path d="M47.7400233,0.071136624 C48.7996873,0.071136624 49.6587147,1.34677309 49.6587147,2.92035043 C49.6587147,4.4630733 48.8330444,5.71942472 47.8021201,5.76810028 L47.7400233,5.76956423 L44.005846,5.76913662 L44.006562,6.65866037 C66.0854058,7.56905443 83.7235178,23.9257655 84.0841199,44.0903807 L84.0897501,44.7204628 C84.0897501,65.7634799 65.2745382,82.8222158 42.0647981,82.8222158 C18.8550579,82.8222158 0.0398460362,65.7634799 0.0398460362,44.7204628 C0.0398460362,24.2775841 17.7971572,7.59496705 40.0900586,6.6600317 L40.089846,5.76913662 L35.9720493,5.76956423 C34.9123853,5.76956423 34.0533579,4.49392776 34.0533579,2.92035043 C34.0533579,1.37762755 34.8790282,0.121276132 35.9099525,0.0726005759 L35.9720493,0.071136624 L47.7400233,0.071136624 Z" id="Combined-Shape"></path>
            </g>
        </g>
    </g>
</svg>