<?xml version="1.0" encoding="UTF-8"?>
<svg width="182px" height="129px" viewBox="0 0 182 129" version="1.1" xmlns="http://www.w3.org/2000/svg" xmlns:xlink="http://www.w3.org/1999/xlink">
    <!-- Generator: Sketch 61.2 (89653) - https://sketch.com -->
    <title>mobile logosmall-logo</title>
    <desc>Created with Sketch.</desc>
    <g id="Page-1" stroke="none" stroke-width="1" fill="none" fill-rule="evenodd">
        <rect id="background" fill="#222222" x="-699" y="-2403" width="8181" height="4952"></rect>
        <g id="Group-Copy">
            <g id="kettlebell" transform="translate(0.000000, 36.000000)" fill="#FFFFFF">
                <path d="M46.0044073,0 C63.1192639,0 76.7351351,3.73115012 76.7351351,17.167834 C76.7351351,30.6045178 55.7066797,48.6585366 46.0044073,48.6585366 C36.3021349,48.6585366 14.7567568,30.6045178 14.7567568,17.167834 C14.7567568,3.73115012 28.8895507,0 46.0044073,0 Z M46.4800638,9.26829268 C34.3909984,9.26829268 26.5621622,9.26829268 26.5621622,17.8107003 C26.5621622,26.3531079 41.0274852,39.3902439 46.4800638,39.3902439 C51.9326423,39.3902439 65.4216216,24.9028552 65.4216216,17.8107003 C65.4216216,10.7185454 58.5691291,9.26829268 46.4800638,9.26829268 Z" id="Oval" fill-rule="nonzero"></path>
                <path d="M23.1924498,36.6097561 C23.1924498,36.6097561 68.1944769,36.6097561 68.1944769,36.6097561 C76.7364818,36.6097561 90.4593979,51.0534959 90.887401,66.4231972 C91.315404,81.7928985 91.315404,95 75.5759716,95 C75.5759716,95 15.5251864,95 13.8392454,95 C0.498209927,95 -0.342271534,80.5939716 0.0779691965,66.4231972 C0.498209927,52.2524228 16.5242644,36.6097561 23.1924498,36.6097561 Z" id="Rectangle" fill-rule="evenodd"></path>
            </g>
            <g id="dumb-bell" transform="translate(125.586769, 67.035416) rotate(57.000000) translate(-125.586769, -67.035416) translate(64.163027, 40.321862)">
                <path d="M6,2.3229178 L23.1084402,2.3229178 C26.4221487,2.3229178 29.1084402,5.0092093 29.1084402,8.3229178 L29.1084402,48.8208601 C29.1084402,52.1345686 26.4221487,54.8208601 23.1084402,54.8208601 L6,54.8208601 C2.6862915,54.8208601 1.29399067e-15,52.1345686 0,48.8208601 C0,42.123545 0,35.42623 0,28.7289149 C0,21.9269159 0,15.1249168 0,8.3229178 C-1.29399067e-15,5.0092093 2.6862915,2.3229178 6,2.3229178 Z" id="Rectangle" fill="#FFFEFE"></path>
                <rect id="Rectangle-Copy" fill="#FFFFFF" x="93.7390447" y="2.3229178" width="29.1084402" height="52.4979423" rx="6"></rect>
                <path d="M24.1748063,22.7645944 C35.5266248,21.525705 47.5881056,20.9062602 60.3592489,20.9062602 C73.1303921,20.9062602 85.9015354,21.525705 98.6726786,22.7645944 L98.6726786,33.9145999 C85.3898684,35.1534894 72.6847236,35.7729341 60.5572443,35.7729341 C48.429765,35.7729341 36.3022856,35.1534894 24.1748063,33.9145999 L24.1748063,22.7645944 Z" id="Rectangle" fill="#FFFFFF"></path>
            </g>
        </g>
    </g>
</svg>